<svg xmlns="http://www.w3.org/2000/svg" viewBox="0 0 16 16">
  <g fill="none" fill-rule="evenodd">
    <rect width="16" height="16"/>
    <path fill="#8B97AF" d="M8.10355339,1.89644661 C8.27711974,2.07001296 8.29640489,2.33943736 8.16140884,2.5343055 L8.10355339,2.60355339 L3.707,7 L14.5,7 C14.7761424,7 15,7.22385763 15,7.5 C15,7.74545989 14.8231248,7.94960837 14.5898756,7.99194433 L14.5,8 L3.707,8 L8.10355339,12.3964466 C8.27711974,12.570013 8.29640489,12.8394374 8.16140884,13.0343055 L8.10355339,13.1035534 C7.92998704,13.2771197 7.66056264,13.2964049 7.4656945,13.1614088 L7.39644661,13.1035534 L2.14644661,7.85355339 C1.97288026,7.67998704 1.95359511,7.41056264 2.08859116,7.2156945 L2.14644661,7.14644661 L7.39644661,1.89644661 C7.59170876,1.70118446 7.90829124,1.70118446 8.10355339,1.89644661 Z"/>
  </g>
</svg>
