<svg xmlns="http://www.w3.org/2000/svg" viewBox="0 0 16 16">
  <g fill="none" fill-rule="evenodd">
    <polygon fill="#D0021B" fill-opacity=".1" fill-rule="nonzero" points="0 0 16 0 16 16 0 16" opacity="0"/>
    <path fill="#FB685F" d="M12.8,3.9 L8.7,8 L12.8,12.1 C12.9,12.2 13,12.4 12.9,12.6 C12.9,12.8 12.7,12.9 12.5,13 C12.3,13 12.1,13 12,12.9 L8,8.8 L3.9,12.9 C3.7,13.1 3.4,13.1 3.2,12.9 C3,12.7 3,12.4 3.2,12.2 L7.3,8 L3.2,3.9 C3,3.7 3,3.4 3.2,3.2 C3.4,3 3.7,3 3.9,3.2 L8,7.3 L12.1,3.2 C12.3,3 12.6,3 12.8,3.2 C13,3.4 13.1,3.7 12.8,3.9 Z"/>
  </g>
</svg>
