<svg xmlns="http://www.w3.org/2000/svg" viewBox="0 0 16 16">
  <g fill="none" fill-rule="evenodd">
    <polygon fill="#635543" fill-opacity=".1" fill-rule="nonzero" points="0 0 16 0 16 16 0 16" opacity="0"/>
    <path fill="#B7BFD0" d="M12.8451075,3.9049329 L8.74772218,8.01513634 L12.8120515,12.0922007 C12.947391,12.2257414 13.0008974,12.4217891 12.9522267,12.6058037 C12.903556,12.7898183 12.7601852,12.933531 12.5766259,12.9823003 C12.3930666,13.0310696 12.1975176,12.9774033 12.0643293,12.8417062 L8,8.76473878 L3.93576732,12.8417062 C3.72931623,13.04873 3.3945496,13.0487734 3.18804513,12.8418031 C2.98154066,12.6348329 2.98149738,12.2992244 3.18794847,12.0922007 L7.25227781,8.01513634 L3.1548925,3.9049329 C2.94838804,3.6979359 2.9483664,3.36230577 3.15484418,3.15528201 C3.36132196,2.94825826 3.69611022,2.94823657 3.90261469,3.15523356 L8,7.26543699 L12.0973853,3.15523356 C12.3038898,2.94823656 12.638678,2.94825825 12.8451558,3.15528201 C13.0516336,3.36230577 13.051612,3.6979359 12.8451075,3.9049329 Z"/>
  </g>
</svg>
