<?xml version="1.0" encoding="UTF-8"?>
<svg width="16px" height="16px" viewBox="0 0 16 16" version="1.1" xmlns="http://www.w3.org/2000/svg" xmlns:xlink="http://www.w3.org/1999/xlink">
    <title>icon/16/16_同步文件夹/浅/nor</title>
    <g id="icon/16/16_同步文件夹/浅/nor" stroke="none" stroke-width="1" fill="none" fill-rule="evenodd">
        <rect id="#16" x="0" y="0" width="16" height="16"></rect>
        <path d="M8.00891632,2.473231 C8.10219479,1.94648203 8.89780521,1.94648203 8.99108368,2.473231 L9,2.578 L9,7 L13.4915472,7 C14.1211768,7 14.1561562,7.89197531 13.5964854,7.99108368 L13.4915472,8 L9,8 L9,12.5 C9,12.7454599 8.82312484,12.9496084 8.58987563,12.9919443 L8.5,13 C8.25454011,13 8.05039163,12.8231248 8.00805567,12.5898756 L8,12.5 L8,8 L3.5641511,8 C3.31869121,8 3.11454273,7.82312484 3.07220677,7.58987563 L3.0641511,7.5 C3.0641511,7.25454011 3.24102626,7.05039163 3.47427547,7.00805567 L3.5641511,7 L8,7 L8,2.57816927 L8.00891632,2.473231 Z" id="路径" fill="#417FF9" fill-rule="nonzero"></path>
    </g>
</svg>