<svg xmlns="http://www.w3.org/2000/svg" viewBox="0 0 16 16">
  <path fill="#36425A" fill-rule="evenodd" d="M9.73240812,1 C9.89958471,1 10.0557004,1.08355057 10.1484333,1.2226499 L11.333,3 L13.5,3 C13.7761424,3 14,3.22385763 14,3.5 C14,3.77614237 13.7761424,4 13.5,4 L13,4 L13,13.2 C13,13.6418278 12.6418278,14 12.2,14 L3.8,14 C3.3581722,14 3,13.6418278 3,13.2 L3,4 L2.5,4 C2.22385763,4 2,3.77614237 2,3.5 C2,3.22385763 2.22385763,3 2.5,3 L4.666,3 L5.85156673,1.2226499 C5.94429962,1.08355057 6.10041529,1 6.26759188,1 L9.73240812,1 Z M12,4 L4,4 L4,13 L12,13 L12,4 Z M9.5,6 C9.77614237,6 10,6.22385763 10,6.5 L10,10.5 C10,10.7761424 9.77614237,11 9.5,11 C9.22385763,11 9,10.7761424 9,10.5 L9,6.5 C9,6.22385763 9.22385763,6 9.5,6 Z M6.5,6 C6.77614237,6 7,6.22385763 7,6.5 L7,10.5 C7,10.7761424 6.77614237,11 6.5,11 C6.22385763,11 6,10.7761424 6,10.5 L6,6.5 C6,6.22385763 6.22385763,6 6.5,6 Z M9.465,2 L6.534,2 L5.868,3 L10.131,3 L9.465,2 Z"/>
</svg>
