<svg xmlns="http://www.w3.org/2000/svg" viewBox="0 0 16 16">
  <g fill="none" fill-rule="evenodd">
    <rect width="16" height="16"/>
    <path fill="#4F5D79" d="M8.5343055,1.83859116 L8.60355339,1.89644661 L13.8535534,7.14644661 C14.0271197,7.32001296 14.0464049,7.58943736 13.9114088,7.7843055 L13.8535534,7.85355339 L8.60355339,13.1035534 C8.40829124,13.2988155 8.09170876,13.2988155 7.89644661,13.1035534 C7.72288026,12.929987 7.70359511,12.6605626 7.83859116,12.4656945 L7.89644661,12.3964466 L12.293,8 L1.5,8 C1.22385763,8 1,7.77614237 1,7.5 C1,7.25454011 1.17687516,7.05039163 1.41012437,7.00805567 L1.5,7 L12.293,7 L7.89644661,2.60355339 C7.72288026,2.42998704 7.70359511,2.16056264 7.83859116,1.9656945 L7.89644661,1.89644661 C8.04831717,1.74457605 8.27357904,1.71082704 8.45806797,1.79519957 L8.5343055,1.83859116 Z"/>
  </g>
</svg>
