<svg xmlns="http://www.w3.org/2000/svg" viewBox="0 0 16 16">
  <g fill="none" fill-rule="evenodd">
    <rect width="16" height="16"/>
    <path fill="#1F72F1" d="M4.37573593,2 C4.54547448,2 4.7096514,2.0539427 4.84534752,2.15233468 L4.94142136,2.23431458 L5.706,2.999 L12.2,3 C12.607841,3 12.9444016,3.30518815 12.9937669,3.6996497 L13,3.8 L13,5.999 L15.102281,6 C15.5101221,6 15.8466826,6.30518815 15.8960479,6.6996497 L15.902281,6.8 L15.8945484,6.91096097 L15.8715002,7.0197769 L14.0429287,13.4197769 C13.9557056,13.725058 13.6979874,13.946065 13.3909316,13.9914088 L13.2737096,14 L1.77396439,14 C1.39468204,14 1.07276618,13.7348856 0.992893472,13.3733062 L0.977249826,13.2724286 L0.0317952807,2.8724286 C-0.00820592873,2.43241529 0.316067945,2.04328664 0.756081249,2.00328543 L0.828509846,2 L4.37573593,2 Z M4.86,6.999 L3.69665586,10.4911713 C3.60933197,10.7531429 3.32617198,10.8947229 3.06420032,10.807399 C2.83133663,10.7297778 2.69359721,10.4974219 2.72719367,10.2627544 L2.74797256,10.1749435 L3.95728113,6.54701779 C4.05407334,6.25664115 4.30637752,6.05027806 4.60309418,6.00800449 L4.71622777,6 L12,5.999 L12,3.999 L5.62426407,4 C5.45452552,4 5.2903486,3.9460573 5.15465248,3.84766532 L5.05857864,3.76568542 L4.292,2.999 L1.047,2.999 L1.956,12.999 L13.123,12.999 L14.836,6.999 L4.86,6.999 Z"/>
  </g>
</svg>
